{
    "asset" : {
        "generator" : "Khronos glTF Blender I/O v3.4.50",
        "version" : "2.0"
    },
    "scene" : 0,
    "scenes" : [
        {
            "name" : "Scene",
            "nodes" : [
                4
            ]
        }
    ],
    "nodes" : [
        {
            "mesh" : 0,
            "name" : "wagon_wheel_front_left",
            "translation" : [
                1.3000030517578125,
                0.7126235961914062,
                1.0146713256835938
            ]
        },
        {
            "mesh" : 1,
            "name" : "wagon_wheel_front_right",
            "translation" : [
                -1.2999954223632812,
                0.7126235961914062,
                1.0146713256835938
            ]
        },
        {
            "mesh" : 2,
            "name" : "wagon_wheel_rear_left",
            "translation" : [
                1.3000030517578125,
                0.7126235961914062,
                -1.0146713256835938
            ]
        },
        {
            "mesh" : 3,
            "name" : "wagon_wheel_rear_right",
            "translation" : [
                -1.2999954223632812,
                0.7126235961914062,
                -1.0146713256835938
            ]
        },
        {
            "children" : [
                0,
                1,
                2,
                3
            ],
            "mesh" : 4,
            "name" : "wagon"
        }
    ],
    "materials" : [
        {
            "name" : "HalloweenBits",
            "pbrMetallicRoughness" : {
                "baseColorTexture" : {
                    "index" : 0
                },
                "metallicFactor" : 0,
                "roughnessFactor" : 0.6000000238418579
            }
        }
    ],
    "meshes" : [
        {
            "name" : "Cube.754",
            "primitives" : [
                {
                    "attributes" : {
                        "POSITION" : 0,
                        "TEXCOORD_0" : 1,
                        "NORMAL" : 2
                    },
                    "indices" : 3,
                    "material" : 0
                }
            ]
        },
        {
            "name" : "Cube.804",
            "primitives" : [
                {
                    "attributes" : {
                        "POSITION" : 4,
                        "TEXCOORD_0" : 5,
                        "NORMAL" : 6
                    },
                    "indices" : 7,
                    "material" : 0
                }
            ]
        },
        {
            "name" : "Cube.771",
            "primitives" : [
                {
                    "attributes" : {
                        "POSITION" : 8,
                        "TEXCOORD_0" : 9,
                        "NORMAL" : 10
                    },
                    "indices" : 3,
                    "material" : 0
                }
            ]
        },
        {
            "name" : "Cube.821",
            "primitives" : [
                {
                    "attributes" : {
                        "POSITION" : 11,
                        "TEXCOORD_0" : 12,
                        "NORMAL" : 13
                    },
                    "indices" : 7,
                    "material" : 0
                }
            ]
        },
        {
            "name" : "Cube.748",
            "primitives" : [
                {
                    "attributes" : {
                        "POSITION" : 14,
                        "TEXCOORD_0" : 15,
                        "NORMAL" : 16
                    },
                    "indices" : 17,
                    "material" : 0
                }
            ]
        }
    ],
    "textures" : [
        {
            "sampler" : 0,
            "source" : 0
        }
    ],
    "images" : [
        {
            "mimeType" : "image/png",
            "name" : "halloweenbits_texture",
            "uri" : "halloweenbits_texture.png"
        }
    ],
    "accessors" : [
        {
            "bufferView" : 0,
            "componentType" : 5126,
            "count" : 562,
            "max" : [
                0.1863376796245575,
                0.712641716003418,
                0.7126339673995972
            ],
            "min" : [
                -0.12214624881744385,
                -0.7126266956329346,
                -0.7126343250274658
            ],
            "type" : "VEC3"
        },
        {
            "bufferView" : 1,
            "componentType" : 5126,
            "count" : 562,
            "type" : "VEC2"
        },
        {
            "bufferView" : 2,
            "componentType" : 5126,
            "count" : 562,
            "type" : "VEC3"
        },
        {
            "bufferView" : 3,
            "componentType" : 5123,
            "count" : 1488,
            "type" : "SCALAR"
        },
        {
            "bufferView" : 4,
            "componentType" : 5126,
            "count" : 562,
            "max" : [
                0.12214624881744385,
                0.712641716003418,
                0.7126339673995972
            ],
            "min" : [
                -0.1863376796245575,
                -0.7126266956329346,
                -0.7126343250274658
            ],
            "type" : "VEC3"
        },
        {
            "bufferView" : 5,
            "componentType" : 5126,
            "count" : 562,
            "type" : "VEC2"
        },
        {
            "bufferView" : 6,
            "componentType" : 5126,
            "count" : 562,
            "type" : "VEC3"
        },
        {
            "bufferView" : 7,
            "componentType" : 5123,
            "count" : 1488,
            "type" : "SCALAR"
        },
        {
            "bufferView" : 8,
            "componentType" : 5126,
            "count" : 562,
            "max" : [
                0.1863376796245575,
                0.712641716003418,
                0.7126339673995972
            ],
            "min" : [
                -0.12214624881744385,
                -0.7126266956329346,
                -0.7126343250274658
            ],
            "type" : "VEC3"
        },
        {
            "bufferView" : 9,
            "componentType" : 5126,
            "count" : 562,
            "type" : "VEC2"
        },
        {
            "bufferView" : 10,
            "componentType" : 5126,
            "count" : 562,
            "type" : "VEC3"
        },
        {
            "bufferView" : 11,
            "componentType" : 5126,
            "count" : 562,
            "max" : [
                0.12214624881744385,
                0.712641716003418,
                0.7126339673995972
            ],
            "min" : [
                -0.1863376796245575,
                -0.7126266956329346,
                -0.7126343250274658
            ],
            "type" : "VEC3"
        },
        {
            "bufferView" : 12,
            "componentType" : 5126,
            "count" : 562,
            "type" : "VEC2"
        },
        {
            "bufferView" : 13,
            "componentType" : 5126,
            "count" : 562,
            "type" : "VEC3"
        },
        {
            "bufferView" : 14,
            "componentType" : 5126,
            "count" : 992,
            "max" : [
                1.4000000953674316,
                2.4743950366973877,
                3.1251699924468994
            ],
            "min" : [
                -1.4000000953674316,
                0.5590389966964722,
                -1.8603123426437378
            ],
            "type" : "VEC3"
        },
        {
            "bufferView" : 15,
            "componentType" : 5126,
            "count" : 992,
            "type" : "VEC2"
        },
        {
            "bufferView" : 16,
            "componentType" : 5126,
            "count" : 992,
            "type" : "VEC3"
        },
        {
            "bufferView" : 17,
            "componentType" : 5123,
            "count" : 1548,
            "type" : "SCALAR"
        }
    ],
    "bufferViews" : [
        {
            "buffer" : 0,
            "byteLength" : 6744,
            "byteOffset" : 0,
            "target" : 34962
        },
        {
            "buffer" : 0,
            "byteLength" : 4496,
            "byteOffset" : 6744,
            "target" : 34962
        },
        {
            "buffer" : 0,
            "byteLength" : 6744,
            "byteOffset" : 11240,
            "target" : 34962
        },
        {
            "buffer" : 0,
            "byteLength" : 2976,
            "byteOffset" : 17984,
            "target" : 34963
        },
        {
            "buffer" : 0,
            "byteLength" : 6744,
            "byteOffset" : 20960,
            "target" : 34962
        },
        {
            "buffer" : 0,
            "byteLength" : 4496,
            "byteOffset" : 27704,
            "target" : 34962
        },
        {
            "buffer" : 0,
            "byteLength" : 6744,
            "byteOffset" : 32200,
            "target" : 34962
        },
        {
            "buffer" : 0,
            "byteLength" : 2976,
            "byteOffset" : 38944,
            "target" : 34963
        },
        {
            "buffer" : 0,
            "byteLength" : 6744,
            "byteOffset" : 41920,
            "target" : 34962
        },
        {
            "buffer" : 0,
            "byteLength" : 4496,
            "byteOffset" : 48664,
            "target" : 34962
        },
        {
            "buffer" : 0,
            "byteLength" : 6744,
            "byteOffset" : 53160,
            "target" : 34962
        },
        {
            "buffer" : 0,
            "byteLength" : 6744,
            "byteOffset" : 59904,
            "target" : 34962
        },
        {
            "buffer" : 0,
            "byteLength" : 4496,
            "byteOffset" : 66648,
            "target" : 34962
        },
        {
            "buffer" : 0,
            "byteLength" : 6744,
            "byteOffset" : 71144,
            "target" : 34962
        },
        {
            "buffer" : 0,
            "byteLength" : 11904,
            "byteOffset" : 77888,
            "target" : 34962
        },
        {
            "buffer" : 0,
            "byteLength" : 7936,
            "byteOffset" : 89792,
            "target" : 34962
        },
        {
            "buffer" : 0,
            "byteLength" : 11904,
            "byteOffset" : 97728,
            "target" : 34962
        },
        {
            "buffer" : 0,
            "byteLength" : 3096,
            "byteOffset" : 109632,
            "target" : 34963
        }
    ],
    "samplers" : [
        {
            "magFilter" : 9729,
            "minFilter" : 9987
        }
    ],
    "buffers" : [
        {
            "byteLength" : 112728,
            "uri" : "wagon.bin"
        }
    ]
}
